<?xml version="1.0" encoding="UTF-8"?>
<svg version="1.1" xmlns="http://www.w3.org/2000/svg" width="512" height="512">
<path d="M0 0 C1.01790619 0.00215515 2.03581238 0.0043103 3.08456421 0.00653076 C17.69363523 0.05620146 32.02575853 0.30709809 46.375 3.3125 C47.34985352 3.51117676 48.32470703 3.70985352 49.32910156 3.91455078 C97.7109774 14.03517194 141.69928269 35.9516877 177.375 70.3125 C178.3640332 71.26068604 178.3640332 71.26068604 179.37304688 72.22802734 C188.86130305 81.37247479 197.6012044 90.66984009 205.375 101.3125 C206.23306152 102.46355017 207.09113451 103.61459177 207.94921875 104.765625 C213.98736829 112.95680614 219.34595521 121.47054105 224.375 130.3125 C224.73948242 130.94430176 225.10396484 131.57610352 225.47949219 132.22705078 C247.08534998 169.97532572 256.85198095 212.74189997 256.6875 255.9375 C256.68534485 256.95540619 256.6831897 257.97331238 256.68096924 259.02206421 C256.63129854 273.63113523 256.38040191 287.96325853 253.375 302.3125 C253.07698486 303.77478027 253.07698486 303.77478027 252.77294922 305.26660156 C242.65232806 353.6484774 220.7358123 397.63678269 186.375 433.3125 C185.74287598 433.97185547 185.11075195 434.63121094 184.45947266 435.31054688 C175.31502521 444.79880305 166.01765991 453.5387044 155.375 461.3125 C154.22394983 462.17056152 153.07290823 463.02863451 151.921875 463.88671875 C143.73224019 469.92427396 135.22961724 475.30707302 126.375 480.3125 C125.66778809 480.7146875 124.96057617 481.116875 124.23193359 481.53125 C101.09654164 494.5566741 75.92537591 503.30551461 49.9375 508.625 C49.21860596 508.77235596 48.49971191 508.91971191 47.7590332 509.0715332 C33.08339502 511.86090125 18.55831162 512.66142619 3.64770508 512.62817383 C0.70811513 512.6250221 -2.2304558 512.64854926 -5.16992188 512.67382812 C-18.54306192 512.71848737 -31.43916711 511.51301542 -44.625 509.3125 C-46.33055054 509.03031616 -46.33055054 509.03031616 -48.07055664 508.74243164 C-91.33802759 500.97044532 -132.38793216 480.98345309 -165.625 452.3125 C-166.37007813 451.67828125 -167.11515625 451.0440625 -167.8828125 450.390625 C-181.38779833 438.57948485 -194.05918743 425.82889772 -204.625 411.3125 C-205.48149066 410.16255169 -206.33826433 409.01281411 -207.1953125 407.86328125 C-213.23534209 399.67315742 -218.61867614 391.16870382 -223.625 382.3125 C-224.0271875 381.60528809 -224.429375 380.89807617 -224.84375 380.16943359 C-237.8691741 357.03404164 -246.61801461 331.86287591 -251.9375 305.875 C-252.08485596 305.15610596 -252.23221191 304.43721191 -252.3840332 303.6965332 C-255.35789088 288.05024391 -255.99800362 272.57681954 -255.9375 256.6875 C-255.93534485 255.66959381 -255.9331897 254.65168762 -255.93096924 253.60293579 C-255.88129854 238.99386477 -255.63040191 224.66174147 -252.625 210.3125 C-252.42632324 209.33764648 -252.22764648 208.36279297 -252.02294922 207.35839844 C-241.90232806 158.9765226 -219.9858123 114.98821731 -185.625 79.3125 C-184.99287598 78.65314453 -184.36075195 77.99378906 -183.70947266 77.31445312 C-174.56502521 67.82619695 -165.26765991 59.0862956 -154.625 51.3125 C-153.47394983 50.45443848 -152.32290823 49.59636549 -151.171875 48.73828125 C-142.98224019 42.70072604 -134.47961724 37.31792698 -125.625 32.3125 C-124.91778809 31.9103125 -124.21057617 31.508125 -123.48193359 31.09375 C-100.34654164 18.0683259 -75.17537591 9.31948539 -49.1875 4 C-48.46860596 3.85264404 -47.74971191 3.70528809 -47.0090332 3.5534668 C-31.36274391 0.57960912 -15.88931954 -0.06050362 0 0 Z " fill="#69AFED" transform="translate(255.625,-0.3125)"/>
<path d="M0 0 C0.74121094 -0.02191406 1.48242188 -0.04382813 2.24609375 -0.06640625 C4.5625 0.5625 4.5625 0.5625 9.5625 5.5625 C9.5625 12.1625 9.5625 18.7625 9.5625 25.5625 C70.9425 25.5625 132.3225 25.5625 195.5625 25.5625 C195.5625 18.9625 195.5625 12.3625 195.5625 5.5625 C200.5625 0.5625 200.5625 0.5625 202.625 -0.06640625 C203.264375 -0.04449219 203.90375 -0.02257812 204.5625 0 C205.201875 -0.00128906 205.84125 -0.00257812 206.5 -0.00390625 C209.91039747 0.93266124 211.18285513 1.84066981 213.5625 4.5625 C214.34985935 8.78961838 214.26233232 12.99214604 214.2265625 17.28125 C214.23134613 18.53127808 214.23612976 19.78130615 214.24105835 21.06921387 C214.24446183 23.71287595 214.23775117 26.35422687 214.21435547 28.99755859 C214.18586485 32.38092149 214.20227284 35.76230156 214.23221779 39.14559174 C214.25465872 42.37838174 214.2389339 45.61093409 214.2265625 48.84375 C214.23668365 50.05736206 214.24680481 51.27097412 214.25723267 52.5213623 C214.14015119 60.90065555 214.14015119 60.90065555 211.15209961 64.32421875 C207.11205729 66.25606514 205.0291015 66.12968749 200.5625 65.5625 C198.13130377 63.69234906 196.92180827 62.28111655 195.5625 59.5625 C195.33391886 57.5250237 195.15225722 55.48209697 195 53.4375 C194.87431641 51.79394531 194.87431641 51.79394531 194.74609375 50.1171875 C194.68550781 49.27414063 194.62492187 48.43109375 194.5625 47.5625 C189.69810817 53.52530289 188.93862021 56.9229154 189.5625 64.5625 C191.0551612 69.21609079 193.43899884 72.00943582 197.47265625 74.64453125 C202.08720647 76.67148322 206.86098131 76.3893907 211.6171875 74.93359375 C215.89244306 72.88770965 218.06440407 70.02279431 219.89453125 65.69921875 C220.99424619 62.18141715 221.51413234 59.12077745 220.5625 55.5625 C219.59933513 54.3042615 218.59412473 53.07774732 217.5625 51.875 C212.12565719 44.7024515 214.10792758 34.0839846 214.5625 25.5625 C220.14922194 25.48813749 225.73565339 25.43379746 231.32275391 25.39770508 C233.22189353 25.38265309 235.12099859 25.36220684 237.02001953 25.33618164 C239.75562081 25.29964008 242.490761 25.28273762 245.2265625 25.26953125 C246.07054596 25.25404739 246.91452942 25.23856354 247.78408813 25.22261047 C253.49463709 25.22099377 257.8596226 26.03938642 262.20703125 30.09765625 C265.23654024 34.05932186 266.68642827 36.09267249 266.69392776 41.03976059 C266.69776891 41.98752609 266.70161005 42.93529159 266.7055676 43.91177726 C266.70470112 44.96019679 266.70383463 46.00861633 266.70294189 47.08880615 C266.70739858 48.7511087 266.70739858 48.7511087 266.7119453 50.44699311 C266.72066404 54.18569823 266.72214322 57.92437144 266.72363281 61.66308594 C266.72825876 64.33341627 266.73326225 67.00374365 266.73867798 69.67407227 C266.75227338 76.94685035 266.75828806 84.21962293 266.76268864 91.49241161 C266.76544935 96.03231867 266.76968642 100.5722236 266.77419281 105.11212921 C266.78638768 117.67777752 266.79668615 130.24342412 266.8000679 142.80907822 C266.80028747 143.61368886 266.80050703 144.41829951 266.80073325 145.2472923 C266.80095153 146.05384919 266.80116981 146.86040609 266.8013947 147.6914041 C266.80183817 149.32584492 266.80228473 150.96028574 266.80273438 152.59472656 C266.8029558 153.40546891 266.80317723 154.21621127 266.80340537 155.05152157 C266.80735305 168.18734843 266.82480516 181.32311979 266.8480939 194.45892522 C266.87180224 207.94006766 266.88426954 221.42118226 266.88543582 234.9023459 C266.88635294 242.47358104 266.8921144 250.04474392 266.91025543 257.61595917 C266.92564954 264.06356646 266.93078104 270.51107917 266.92251733 276.95870134 C266.91860815 280.2485734 266.92118235 283.53821492 266.93357468 286.82807159 C266.94622432 290.39496598 266.94045495 293.96136876 266.92999268 297.52825928 C266.94207728 299.08750425 266.94207728 299.08750425 266.95440602 300.67824912 C266.91217054 306.819501 266.38516499 311.46785947 262.0625 316.20703125 C257.71359498 319.59328802 254.88829297 320.68616671 249.44681835 320.69672108 C248.38210975 320.70117892 247.31740115 320.70563676 246.22042865 320.71022969 C245.04652066 320.71004533 243.87261267 320.70986097 242.66313171 320.70967102 C241.41931836 320.71334771 240.17550501 320.7170244 238.89400035 320.7208125 C235.43486878 320.72994253 231.97578467 320.73454972 228.51664555 320.73720181 C224.78852483 320.74110397 221.06041786 320.75068228 217.33230591 320.75941467 C208.32640909 320.77918014 199.32051114 320.78924477 190.31459805 320.79814246 C186.0750604 320.80252467 181.83552399 320.8078916 177.59598732 320.81313133 C163.50592527 320.83014264 149.41586401 320.84463778 135.32579327 320.85188007 C131.6690998 320.85379001 128.01240634 320.85571033 124.35571289 320.85766602 C123.44684575 320.85814976 122.53797861 320.8586335 121.60157005 320.8591319 C106.87179478 320.86743584 92.14210064 320.89277934 77.41236081 320.92524669 C62.29492933 320.95829742 47.1775391 320.97632698 32.06007129 320.97952431 C23.5699767 320.98169111 15.08000044 320.99046457 6.58994102 321.01598549 C-0.63901795 321.03766527 -7.86782985 321.04575633 -15.09681765 321.03601871 C-18.7857072 321.03146623 -22.47429312 321.0334148 -26.16314125 321.05278015 C-30.16136933 321.07358861 -34.15892061 321.06345182 -38.15718079 321.05024719 C-39.32439661 321.06121644 -40.49161243 321.07218568 -41.69419843 321.08348733 C-47.92508809 321.03363651 -51.72383299 320.7856877 -56.4375 316.5625 C-60.16146184 312.43594769 -61.55969581 309.48801748 -61.57172108 303.96219158 C-61.57840784 302.53755676 -61.57840784 302.53755676 -61.58522969 301.08414143 C-61.58504533 300.03863474 -61.58486097 298.99312805 -61.58467102 297.91593933 C-61.58834771 296.80688321 -61.5920244 295.69782709 -61.5958125 294.5551632 C-61.60687138 290.81956708 -61.6106969 287.08399874 -61.61450195 283.34838867 C-61.62076485 280.6779107 -61.62739849 278.00743572 -61.63441467 275.33695984 C-61.65417617 267.30993769 -61.66424425 259.28291428 -61.67314246 251.25587389 C-61.67752531 247.4765796 -61.68289208 243.69728672 -61.68813133 239.91799355 C-61.70514223 227.35659545 -61.7196372 214.79519824 -61.72688007 202.2337904 C-61.72878999 198.97413825 -61.73071032 195.71448611 -61.73266602 192.45483398 C-61.73314976 191.64465713 -61.7336335 190.83448028 -61.7341319 189.99975262 C-61.74243524 176.87043791 -61.76777788 163.74121422 -61.80024669 150.61193927 C-61.8333032 137.1352856 -61.8513275 123.65867821 -61.85452431 110.18198377 C-61.85669057 102.61409028 -61.86545617 95.04632958 -61.89098549 87.47847557 C-61.91267317 81.03453464 -61.92075246 74.59075875 -61.91101871 68.14678546 C-61.90646847 64.8588656 -61.91057592 61.57135817 -61.92778015 58.28347015 C-61.94539223 54.71869417 -61.93844468 51.15478717 -61.92524719 47.5900116 C-61.93621644 46.55119707 -61.94718568 45.51238254 -61.95848733 44.44208878 C-61.90508009 38.48213858 -61.38928233 35.11019233 -57.4375 30.5625 C-51.92813625 25.70901289 -48.46097255 25.42299737 -41.2734375 25.46484375 C-40.36622955 25.4662587 -39.45902161 25.46767365 -38.52432251 25.46913147 C-35.62034845 25.47473904 -32.71645085 25.48729282 -29.8125 25.5 C-27.84635528 25.50501402 -25.88020935 25.5095771 -23.9140625 25.51367188 C-19.0885121 25.52471094 -14.26301903 25.54198065 -9.4375 25.5625 C-9.3258107 28.95822144 -9.25011748 32.3530016 -9.1875 35.75 C-9.13722656 37.18956055 -9.13722656 37.18956055 -9.0859375 38.65820312 C-8.98640429 45.84947774 -8.98640429 45.84947774 -11.375 49.625 C-12.055625 50.264375 -12.73625 50.90375 -13.4375 51.5625 C-15.98734446 55.25977446 -16.05838147 59.22418899 -15.4375 63.5625 C-14.07883603 68.05341324 -12.17250388 71.47270343 -8.1875 74.0625 C-2.81814562 76.64392037 1.75545019 76.13473244 7.3125 74.375 C11.33693253 72.13060494 13.51532311 69.65685378 15.5625 65.5625 C16.33192747 57.90189036 16.33192747 57.90189036 13.625 50.9375 C12.13280667 49.21359707 12.13280667 49.21359707 10.5625 47.5625 C10.51351562 48.38234375 10.46453125 49.2021875 10.4140625 50.046875 C10.33929688 51.12453125 10.26453125 52.2021875 10.1875 53.3125 C10.11789063 54.37984375 10.04828125 55.4471875 9.9765625 56.546875 C9.58230446 59.41826378 9.14976192 61.16541057 7.5625 63.5625 C4.50202368 65.60281755 3.62754006 65.87843524 0.125 65.9375 C-0.63683594 65.96585937 -1.39867187 65.99421875 -2.18359375 66.0234375 C-5.34168284 65.37758912 -6.41900586 64.04109877 -8.4375 61.5625 C-8.94543457 58.94445801 -8.94543457 58.94445801 -8.95507812 55.93945312 C-8.96768677 54.81148315 -8.98029541 53.68351318 -8.99328613 52.5213623 C-8.98518921 51.30775024 -8.97709229 50.09413818 -8.96875 48.84375 C-8.9725769 47.59372192 -8.97640381 46.34369385 -8.98034668 45.05578613 C-8.98306914 42.41244095 -8.97769953 39.77057514 -8.95898438 37.12744141 C-8.93619354 33.74432509 -8.94931983 30.36247803 -8.97327423 26.97940826 C-8.99122684 23.74664367 -8.97864701 20.51403118 -8.96875 17.28125 C-8.97684692 16.06763794 -8.98494385 14.85402588 -8.99328613 13.6036377 C-8.98067749 12.47566772 -8.96806885 11.34769775 -8.95507812 10.18554688 C-8.95030457 8.69806946 -8.95030457 8.69806946 -8.94543457 7.18054199 C-7.99487851 2.28110053 -4.87261292 -0.00844474 0 0 Z " fill="#EDEEED" transform="translate(153.4375,91.4375)"/>
<path d="M0 0 C0.74121094 -0.02191406 1.48242188 -0.04382813 2.24609375 -0.06640625 C4.5625 0.5625 4.5625 0.5625 9.5625 5.5625 C9.5625 12.1625 9.5625 18.7625 9.5625 25.5625 C70.9425 25.5625 132.3225 25.5625 195.5625 25.5625 C195.5625 18.9625 195.5625 12.3625 195.5625 5.5625 C200.5625 0.5625 200.5625 0.5625 202.625 -0.06640625 C203.264375 -0.04449219 203.90375 -0.02257812 204.5625 0 C205.201875 -0.00128906 205.84125 -0.00257812 206.5 -0.00390625 C209.91039747 0.93266124 211.18285513 1.84066981 213.5625 4.5625 C214.34985935 8.78961838 214.26233232 12.99214604 214.2265625 17.28125 C214.23134613 18.53127808 214.23612976 19.78130615 214.24105835 21.06921387 C214.24446183 23.71287595 214.23775117 26.35422687 214.21435547 28.99755859 C214.18586485 32.38092149 214.20227284 35.76230156 214.23221779 39.14559174 C214.25465872 42.37838174 214.2389339 45.61093409 214.2265625 48.84375 C214.23668365 50.05736206 214.24680481 51.27097412 214.25723267 52.5213623 C214.14015119 60.90065555 214.14015119 60.90065555 211.15209961 64.32421875 C207.11205729 66.25606514 205.0291015 66.12968749 200.5625 65.5625 C198.13130377 63.69234906 196.92180827 62.28111655 195.5625 59.5625 C195.33391886 57.5250237 195.15225722 55.48209697 195 53.4375 C194.87431641 51.79394531 194.87431641 51.79394531 194.74609375 50.1171875 C194.68550781 49.27414063 194.62492187 48.43109375 194.5625 47.5625 C189.69810817 53.52530289 188.93862021 56.9229154 189.5625 64.5625 C191.0551612 69.21609079 193.43899884 72.00943582 197.47265625 74.64453125 C202.08720647 76.67148322 206.86098131 76.3893907 211.6171875 74.93359375 C215.89244306 72.88770965 218.06440407 70.02279431 219.89453125 65.69921875 C220.99424619 62.18141715 221.51413234 59.12077745 220.5625 55.5625 C219.59933513 54.3042615 218.59412473 53.07774732 217.5625 51.875 C212.12565719 44.7024515 214.10792758 34.0839846 214.5625 25.5625 C220.14922194 25.48813749 225.73565339 25.43379746 231.32275391 25.39770508 C233.22189353 25.38265309 235.12099859 25.36220684 237.02001953 25.33618164 C239.75562081 25.29964008 242.490761 25.28273762 245.2265625 25.26953125 C246.07054596 25.25404739 246.91452942 25.23856354 247.78408813 25.22261047 C253.49463709 25.22099377 257.8596226 26.03938642 262.20703125 30.09765625 C275.28984854 47.20595578 266.5625 73.02522949 266.5625 94.5625 C158.3225 94.5625 50.0825 94.5625 -61.4375 94.5625 C-61.4375 36.5625 -61.4375 36.5625 -57.4375 30.5625 C-51.92813625 25.70901289 -48.46097255 25.42299737 -41.2734375 25.46484375 C-40.36622955 25.4662587 -39.45902161 25.46767365 -38.52432251 25.46913147 C-35.62034845 25.47473904 -32.71645085 25.48729282 -29.8125 25.5 C-27.84635528 25.50501402 -25.88020935 25.5095771 -23.9140625 25.51367188 C-19.0885121 25.52471094 -14.26301903 25.54198065 -9.4375 25.5625 C-9.3258107 28.95822144 -9.25011748 32.3530016 -9.1875 35.75 C-9.13722656 37.18956055 -9.13722656 37.18956055 -9.0859375 38.65820312 C-8.98640429 45.84947774 -8.98640429 45.84947774 -11.375 49.625 C-12.055625 50.264375 -12.73625 50.90375 -13.4375 51.5625 C-15.98734446 55.25977446 -16.05838147 59.22418899 -15.4375 63.5625 C-14.07883603 68.05341324 -12.17250388 71.47270343 -8.1875 74.0625 C-2.81814562 76.64392037 1.75545019 76.13473244 7.3125 74.375 C11.33693253 72.13060494 13.51532311 69.65685378 15.5625 65.5625 C16.33192747 57.90189036 16.33192747 57.90189036 13.625 50.9375 C12.13280667 49.21359707 12.13280667 49.21359707 10.5625 47.5625 C10.51351562 48.38234375 10.46453125 49.2021875 10.4140625 50.046875 C10.33929688 51.12453125 10.26453125 52.2021875 10.1875 53.3125 C10.11789063 54.37984375 10.04828125 55.4471875 9.9765625 56.546875 C9.58230446 59.41826378 9.14976192 61.16541057 7.5625 63.5625 C4.50202368 65.60281755 3.62754006 65.87843524 0.125 65.9375 C-0.63683594 65.96585937 -1.39867187 65.99421875 -2.18359375 66.0234375 C-5.34168284 65.37758912 -6.41900586 64.04109877 -8.4375 61.5625 C-8.94543457 58.94445801 -8.94543457 58.94445801 -8.95507812 55.93945312 C-8.96768677 54.81148315 -8.98029541 53.68351318 -8.99328613 52.5213623 C-8.98518921 51.30775024 -8.97709229 50.09413818 -8.96875 48.84375 C-8.9725769 47.59372192 -8.97640381 46.34369385 -8.98034668 45.05578613 C-8.98306914 42.41244095 -8.97769953 39.77057514 -8.95898438 37.12744141 C-8.93619354 33.74432509 -8.94931983 30.36247803 -8.97327423 26.97940826 C-8.99122684 23.74664367 -8.97864701 20.51403118 -8.96875 17.28125 C-8.97684692 16.06763794 -8.98494385 14.85402588 -8.99328613 13.6036377 C-8.98067749 12.47566772 -8.96806885 11.34769775 -8.95507812 10.18554688 C-8.95030457 8.69806946 -8.95030457 8.69806946 -8.94543457 7.18054199 C-7.99487851 2.28110053 -4.87261292 -0.00844474 0 0 Z " fill="#EE5261" transform="translate(153.4375,91.4375)"/>
<path d="M0 0 C12.21 0 24.42 0 37 0 C37 12.21 37 24.42 37 37 C24.79 37 12.58 37 0 37 C0 24.79 0 12.58 0 0 Z " fill="#DBD8DD" transform="translate(298,342)"/>
<path d="M0 0 C12.21 0 24.42 0 37 0 C37 12.21 37 24.42 37 37 C24.79 37 12.58 37 0 37 C0 24.79 0 12.58 0 0 Z " fill="#DBD8DD" transform="translate(177,342)"/>
<path d="M0 0 C12.21 0 24.42 0 37 0 C37 12.21 37 24.42 37 37 C24.79 37 12.58 37 0 37 C0 24.79 0 12.58 0 0 Z " fill="#DBD8DD" transform="translate(116,342)"/>
<path d="M0 0 C12.21 0 24.42 0 37 0 C37 12.21 37 24.42 37 37 C24.79 37 12.58 37 0 37 C0 24.79 0 12.58 0 0 Z " fill="#DBD8DD" transform="translate(359,281)"/>
<path d="M0 0 C12.21 0 24.42 0 37 0 C37 12.21 37 24.42 37 37 C24.79 37 12.58 37 0 37 C0 24.79 0 12.58 0 0 Z " fill="#2EBFAE" transform="translate(298,281)"/>
<path d="M0 0 C12.21 0 24.42 0 37 0 C37 12.21 37 24.42 37 37 C24.79 37 12.58 37 0 37 C0 24.79 0 12.58 0 0 Z " fill="#DBD8DD" transform="translate(177,281)"/>
<path d="M0 0 C12.21 0 24.42 0 37 0 C37 12.21 37 24.42 37 37 C24.79 37 12.58 37 0 37 C0 24.79 0 12.58 0 0 Z " fill="#DBD8DD" transform="translate(116,281)"/>
<path d="M0 0 C12.21 0 24.42 0 37 0 C37 12.21 37 24.42 37 37 C24.79 37 12.58 37 0 37 C0 24.79 0 12.58 0 0 Z " fill="#DBD8DD" transform="translate(359,219)"/>
<path d="M0 0 C12.21 0 24.42 0 37 0 C37 12.21 37 24.42 37 37 C24.79 37 12.58 37 0 37 C0 24.79 0 12.58 0 0 Z " fill="#DBD8DD" transform="translate(298,219)"/>
<path d="M0 0 C12.21 0 24.42 0 37 0 C37 12.21 37 24.42 37 37 C24.79 37 12.58 37 0 37 C0 24.79 0 12.58 0 0 Z " fill="#DBD8DD" transform="translate(177,219)"/>
<path d="M0 0 C11.88 0 23.76 0 36 0 C36 12.21 36 24.42 36 37 C24.12 37 12.24 37 0 37 C0 24.79 0 12.58 0 0 Z " fill="#DBD8DD" transform="translate(238,342)"/>
<path d="M0 0 C11.88 0 23.76 0 36 0 C36 12.21 36 24.42 36 37 C24.12 37 12.24 37 0 37 C0 24.79 0 12.58 0 0 Z " fill="#DBD8DD" transform="translate(238,281)"/>
<path d="M0 0 C11.88 0 23.76 0 36 0 C36 12.21 36 24.42 36 37 C24.12 37 12.24 37 0 37 C0 24.79 0 12.58 0 0 Z " fill="#DBD8DD" transform="translate(238,219)"/>
<path d="M0 0 C0.74121094 -0.02191406 1.48242188 -0.04382813 2.24609375 -0.06640625 C5.71794978 0.87620559 7.78160814 2.49756693 9.5625 5.5625 C10.29063209 9.61449837 10.19127781 13.61621004 10.12109375 17.72265625 C10.11759666 19.49569374 10.11759666 19.49569374 10.11402893 21.30455017 C10.10429613 23.80019358 10.08252016 26.29581503 10.04956055 28.79125977 C10.00013668 32.61442712 9.98807824 36.43630758 9.98242188 40.25976562 C9.96833634 42.68490955 9.95213212 45.11004228 9.93359375 47.53515625 C9.92823105 48.68000992 9.92286835 49.82486359 9.91734314 51.00440979 C9.90135574 52.06908981 9.88536835 53.13376984 9.86889648 54.23071289 C9.85293678 55.63372398 9.85293678 55.63372398 9.83665466 57.06507874 C9.54404214 59.73064251 9.02260015 61.32331364 7.5625 63.5625 C4.50202368 65.60281755 3.62754006 65.87843524 0.125 65.9375 C-0.63683594 65.96585937 -1.39867187 65.99421875 -2.18359375 66.0234375 C-5.34168284 65.37758912 -6.41900586 64.04109877 -8.4375 61.5625 C-8.94543457 58.94445801 -8.94543457 58.94445801 -8.95507812 55.93945312 C-8.96768677 54.81148315 -8.98029541 53.68351318 -8.99328613 52.5213623 C-8.98518921 51.30775024 -8.97709229 50.09413818 -8.96875 48.84375 C-8.9725769 47.59372192 -8.97640381 46.34369385 -8.98034668 45.05578613 C-8.98306914 42.41244095 -8.97769953 39.77057514 -8.95898438 37.12744141 C-8.93619354 33.74432509 -8.94931983 30.36247803 -8.97327423 26.97940826 C-8.99122684 23.74664367 -8.97864701 20.51403118 -8.96875 17.28125 C-8.97684692 16.06763794 -8.98494385 14.85402588 -8.99328613 13.6036377 C-8.98067749 12.47566772 -8.96806885 11.34769775 -8.95507812 10.18554688 C-8.95189575 9.19389526 -8.94871338 8.20224365 -8.94543457 7.18054199 C-7.99487851 2.28110053 -4.87261292 -0.00844474 0 0 Z " fill="#585C6E" transform="translate(153.4375,91.4375)"/>
<path d="M0 0 C0.639375 -0.00128906 1.27875 -0.00257812 1.9375 -0.00390625 C5.34789747 0.93266124 6.62035513 1.84066981 9 4.5625 C9.78735935 8.78961838 9.69983232 12.99214604 9.6640625 17.28125 C9.66884613 18.53127808 9.67362976 19.78130615 9.67855835 21.06921387 C9.68196183 23.71287595 9.67525117 26.35422687 9.65185547 28.99755859 C9.62336485 32.38092149 9.63977284 35.76230156 9.66971779 39.14559174 C9.69215872 42.37838174 9.6764339 45.61093409 9.6640625 48.84375 C9.67418365 50.05736206 9.68430481 51.27097412 9.69473267 52.5213623 C9.57765119 60.90065555 9.57765119 60.90065555 6.58959961 64.32421875 C2.54955729 66.25606514 0.4666015 66.12968749 -4 65.5625 C-6.43119623 63.69234906 -7.64069173 62.28111655 -9 59.5625 C-9.1158454 57.86365232 -9.16957147 56.16039713 -9.19287109 54.45776367 C-9.20893402 53.39293259 -9.22499695 52.3281015 -9.24154663 51.23100281 C-9.28593193 46.35900454 -9.32705853 41.48714331 -9.35009766 36.61499023 C-9.36666521 34.04360916 -9.39396529 31.47227428 -9.43212891 28.90112305 C-9.48682553 25.19816133 -9.50876159 21.49627975 -9.5234375 17.79296875 C-9.54610687 16.6438652 -9.56877625 15.49476166 -9.59213257 14.31083679 C-9.56856482 5.42725372 -9.56856482 5.42725372 -6.59619141 2.33740234 C-4.08956785 0.62373362 -2.98098083 -0.10217071 0 0 Z " fill="#585B6E" transform="translate(358,91.4375)"/>
<path d="M0 0 C0.33 0 0.66 0 1 0 C1.06058594 0.89203125 1.12117188 1.7840625 1.18359375 2.703125 C1.26738281 3.87359375 1.35117187 5.0440625 1.4375 6.25 C1.51871094 7.41015625 1.59992188 8.5703125 1.68359375 9.765625 C1.99236368 13.46991877 1.99236368 13.46991877 3 17 C6.74062519 18.24687506 10.12072427 18.62007916 14 18 C17.18328877 16.40282421 17.18328877 16.40282421 19 13 C19.69705932 8.99971181 19.92883888 5.05618384 20 1 C23.58942358 2.19647453 24.46645703 3.69836464 26.19921875 6.9765625 C28.17569797 11.97078803 27.51819874 16.39427799 25.5 21.1875 C22.98569486 25.6446773 19.77739285 28.20232125 15 30 C10.52900631 30.92968282 6.828611 30.90657026 2.69140625 28.85546875 C-1.53379434 25.91720999 -4.45760963 23.01276871 -6 18 C-6.66903179 12.81712082 -6.62276622 9.16249694 -4.125 4.5 C-2 2 -2 2 0 0 Z " fill="#ECE9E9" transform="translate(348,138)"/>
<path d="M0 0 C5.70650171 4.20479073 5.70650171 4.20479073 7 8 C7.68073835 13.2401022 7.65733258 17.6609892 5.3125 22.4375 C0.44285217 27.83359624 -2.66455749 29.66645575 -9.75 30.375 C-14.77107202 30.28132328 -18.32841721 28.35478693 -22 25 C-25.17654746 20.81516641 -26.72588459 16.29383332 -26.46484375 11.03125 C-25.59419407 7.22673037 -23.56254785 3.91975149 -21 1 C-20.34 1 -19.68 1 -19 1 C-18.97421875 1.80824219 -18.9484375 2.61648437 -18.921875 3.44921875 C-18.67517033 8.09735902 -18.46441168 11.9937747 -16.5 16.25 C-12.80209213 18.83853551 -9.37939919 18.56456343 -5 18 C-4.01 17.67 -3.02 17.34 -2 17 C-0.6537806 13.61429851 -0.68962416 9.85177378 -0.4375 6.25 C-0.35371094 5.07953125 -0.26992187 3.9090625 -0.18359375 2.703125 C-0.09271484 1.36507812 -0.09271484 1.36507812 0 0 Z " fill="#EDE9E9" transform="translate(163,138)"/>
</svg>
